<?xml version="1.0" encoding="UTF-8"?>
<svg id="Layer_1" xmlns="http://www.w3.org/2000/svg" version="1.1" viewBox="0 0 578.72 113">
  <!-- Generator: Adobe Illustrator 29.5.1, SVG Export Plug-In . SVG Version: 2.1.0 Build 141)  -->
  <defs>
    <style>
      .st0 {
        fill: #231f20;
      }
    </style>
  </defs>
  <g>
    <path class="st0" d="M76.37,14.51l-3.2,8.33h-16.23v75.82h-21.45V22.83h-19.3l3.53-8.33h56.64Z"/>
    <path class="st0" d="M136.8,98.91h-22.25c-1.76-5.8-4.87-15.09-9.31-27.88-1.51,3.2-4.11,4.79-7.8,4.79,0,.09-3.44.09-10.32,0l-7.89,22.86c-.17.15-3.14.22-8.92.22l8.33-23.34-3.41-.38c1.01-.93,1.85-1.81,2.52-2.66,1.77-2.02,2.82-3.62,3.15-4.8,6.56-22.25,9.97-34.09,10.22-35.52.08-.42.13-.93.13-1.52,0-2.11-.55-5.01-1.64-8.72-.84-2.44-1.68-4.93-2.52-7.46h22.71l27,84.4ZM104.31,68.12l-7.75-24.22c-.93,1.35-3.45,9.42-7.57,24.22h15.32Z"/>
    <path class="st0" d="M204.92,34.91c0,6.97-2.81,13.14-8.42,18.52-5.28,5.12-12.07,8.48-20.37,10.08-2.18.33-4.32,1.7-6.41,4.09-2.1,2.39-3.14,4.64-3.14,6.74v24.31h-21.19V14.51h42.77c5.13,0,9.29,2.35,12.49,7.05,2.86,4.12,4.29,8.56,4.29,13.35ZM186.25,37.72c0-5.13-1.68-9.25-5.05-12.36-3.37-3.11-7.52-4.67-12.46-4.67h-2.17v42.89c.76-1.26,1.6-2.54,2.49-3.85.89-1.3,2.79-2.71,5.69-4.23,4.18-3.36,6.99-6.01,8.44-7.95,2.04-2.78,3.07-6.06,3.07-9.84Z"/>
    <path class="st0" d="M259.8,14.51c-.67,2.02-1.6,4.79-2.78,8.33h-18.8c-.76,0-1.68.4-2.78,1.21-1.09.8-1.56,1.75-1.39,2.85v42.62h22.08c-.5,1.6-1.51,3.91-3.03,6.94-9.34-.08-14.55-.08-15.64,0-.59.25-1.18.5-1.77.76-1.01.59-1.56,1.56-1.64,2.9v7.32c0,.5.38,1.12,1.14,1.83.76.71,1.43,1.07,2.02,1.07h20.82l2.52,8.58h-47.69V14.51h46.93Z"/>
    <path class="st0" d="M354.29,98.66h-21.45c.08-12.56.04-21.64-.13-27.25-.09.08-.86.84-2.31,2.27-1.45,1.43-2.86,2.27-4.23,2.52-3.33-.17-4.91-.17-4.74,0-2.99-.25-4.49,1.13-4.49,4.14v18.32h-21.07V14.89h21.45v53.24h15.52V14.89h21.45v83.77Z"/>
    <path class="st0" d="M412.32,14.51c-.67,2.02-1.6,4.79-2.78,8.33h-18.8c-.76,0-1.68.4-2.78,1.21-1.09.8-1.56,1.75-1.39,2.85v42.62h22.08c-.5,1.6-1.51,3.91-3.03,6.94-9.34-.08-14.55-.08-15.64,0-.59.25-1.18.5-1.77.76-1.01.59-1.56,1.56-1.64,2.9v7.32c0,.5.38,1.12,1.14,1.83.76.71,1.43,1.07,2.02,1.07h20.82l2.52,8.58h-47.69V14.51h46.93Z"/>
    <path class="st0" d="M488.9,98.91h-22.25c-1.76-5.8-4.86-15.09-9.31-27.88-1.51,3.2-4.11,4.79-7.8,4.79,0,.09-3.44.09-10.32,0l-7.89,22.86c-.17.15-3.14.22-8.92.22l8.33-23.34-3.41-.38c1.01-.93,1.85-1.81,2.52-2.66,1.77-2.02,2.82-3.62,3.15-4.8,6.56-22.25,9.97-34.09,10.22-35.52.08-.42.13-.93.13-1.52,0-2.11-.55-5.01-1.64-8.72-.84-2.44-1.68-4.93-2.52-7.46h22.71l27,84.4ZM456.4,68.12l-7.75-24.22c-.93,1.35-3.45,9.42-7.57,24.22h15.32Z"/>
    <path class="st0" d="M561.94,57.02c0,11.69-4.44,21.55-13.31,29.58-8.87,8.03-19.24,12.05-31.1,12.05h-21.07V14.63l32.42-.13c.25,0,2.4,1.05,6.43,3.15,17.74,9,26.62,22.12,26.62,39.36ZM538.73,57.78c0-7.32-1.77-14.51-5.3-21.57-3.95-7.9-9-13.08-15.14-15.52v73.04c6.39-3.28,11.44-8.28,15.14-15.01,3.53-6.48,5.3-13.46,5.3-20.94Z"/>
  </g>
  <path d="M569.94,105.51H8.78V7.49h561.16v98.02ZM10.94,103.35h556.85V9.65H10.94v93.7Z"/>
</svg>